<?xml version="1.0" encoding="UTF-8"?>
<svg xmlns="http://www.w3.org/2000/svg" viewBox="0 0 466.42 154.37">
  <defs>
    <style>.cls-1{fill:#c61624;}.cls-2{fill:#fff;}.cls-3{fill:#26387f;}</style>
  </defs>
  <title>hw dohmen </title>
  <g id="Schrift">
    <rect class="cls-1" x="203.93" y="33.04" width="260.96" height="86.58"></rect>
    <path class="cls-2" d="M249.75,87.92c-1.79,1.73-4.74,4.81-9.91,4.81-9.33,0-12.85-7.82-12.85-16.8s3.66-18.16,13.14-18.16c5.89,0,8.11,3,9.48,5.38h.14V51.45c0-5.1-1.15-6.32-5.38-6.54V43.48l12.56-1.8V91.94h-7.18Zm0-14.79c0-4-.79-11.49-7.61-11.49-6.61,0-7.25,8.26-7.25,13.29,0,5.52.57,13.93,7.32,13.93,6.9,0,7.54-9,7.54-12.78Z"></path>
    <path class="cls-2" d="M263.75,75.29c0-12,5-17.52,15.51-17.52S294.77,65,294.77,75.29c0,11.7-4.89,17.44-15.51,17.44C267.7,92.73,263.75,85.34,263.75,75.29Zm15.51,15c7,0,7.61-7.82,7.61-15,0-6.61-.65-15.08-7.61-15.08s-7.61,8.76-7.61,15.08C271.65,81.25,272.15,90.29,279.26,90.29Z"></path>
    <path class="cls-2" d="M301.3,51.45c0-5.1-1.22-6.32-5.6-6.54V43.48l12.78-1.8V67h.14c1.22-3,4.67-9.26,11.92-9.26,8.18,0,8.83,6.89,8.83,12V91.94h-7.18V70.83c0-3.51,0-8.18-5.24-8.18-4.16,0-8.47,5.67-8.47,12.21V91.94H301.3Z"></path>
    <path class="cls-2" d="M338.84,67.89c0-5-1.14-6.25-5.52-6.39V60.06l12.85-2.29v8.54h.14c1.22-2.51,4.53-8.54,11-8.54,6.67,0,8.33,4.81,8.83,8h.14c1.51-2.8,4.24-8,10.7-8,9.12,0,9.12,8.33,9.12,13.42V91.94h-7.18V72.34c0-4.45,0-9.69-4.81-9.69-5.46,0-8,7.54-8,12.71V91.94h-7.18V73.35c0-5.68,0-10.7-4.81-10.7s-8,6.68-8,11.77V91.94h-7.19Z"></path>
    <path class="cls-2" d="M420,90.79a28.52,28.52,0,0,1-10.13,1.94c-11,0-17.59-6.67-17.59-18.67,0-11.34,5.46-16.29,15.08-16.29,12.28,0,13.28,8.9,13.28,13.71H400.16c0,7.18,2.94,17.38,13.07,17.38A18.92,18.92,0,0,0,420,87.64Zm-6.54-22.18c0-1.65-.14-8.4-6.39-8.4-5.38,0-6.89,5.67-6.89,8.4Z"></path>
    <path class="cls-2" d="M427.3,67.89c0-5-1.23-6.25-5.75-6.39V60.06l12.93-2.29V67h.14c1.08-2.52,4.88-9.19,12-9.19,6.53,0,8.69,4.59,8.69,10.12v24h-7.18V73.35c0-5.68,0-10.7-4.81-10.7s-8.83,6.68-8.83,11.77V91.94H427.3Z"></path>
    <rect class="cls-3" x="6.55" y="16.01" width="213.25" height="121.53" transform="matrix(0.99, -0.16, 0.16, 0.99, -10.91, 19.29)"></rect>
    <path class="cls-2" d="M103.93,51.33c0-5.1-1.22-6.32-5.6-6.54V43.36l12.78-1.8V66.91h.14c1.22-2.95,4.67-9.27,11.92-9.27,8.19,0,8.83,6.9,8.83,12V91.82h-7.18V70.71c0-3.52,0-8.18-5.24-8.18-4.16,0-8.47,5.67-8.47,12.2V91.82h-7.18Z"></path>
    <path class="cls-2" d="M141.48,87.59a5.17,5.17,0,1,1,5.46,5A5.08,5.08,0,0,1,141.48,87.59Z"></path>
    <path class="cls-2" d="M162.44,65.61c-1.15-4.38-1.86-5.38-6.53-5.74V58.43h11.7l6.32,24.85h.14l8.26-24.85h3.09l9.26,25h.14l5.32-25h3.73l-7.54,33.39H190.8l-8.11-22.9h-.14l-7.9,22.9h-5.32Z"></path>
    <path class="cls-2" d="M208,87.59a5.17,5.17,0,1,1,5.46,5A5.08,5.08,0,0,1,208,87.59Z"></path>
    <path class="cls-2" d="M413.08,98.77a4.77,4.77,0,0,1,2.41,3.69h-1.8a3.29,3.29,0,0,0-1.33-2.15,4.54,4.54,0,0,0-2.56-.67,4,4,0,0,0-3.07,1.4,6,6,0,0,0-1.25,4.17,6.73,6.73,0,0,0,1,3.9,3.78,3.78,0,0,0,3.36,1.5,4.25,4.25,0,0,0,2.95-1,4.49,4.49,0,0,0,1.2-3.42h-4.21v-1.51h5.9v7.19h-1.17l-.44-1.73a6.56,6.56,0,0,1-1.61,1.41,5.93,5.93,0,0,1-3,.68,5.77,5.77,0,0,1-4-1.55,7.39,7.39,0,0,1-1.85-5.32,7.71,7.71,0,0,1,1.8-5.37,5.7,5.7,0,0,1,4.44-1.9A6.73,6.73,0,0,1,413.08,98.77Z"></path>
    <path class="cls-2" d="M418.48,102h1.63v1.39a5.16,5.16,0,0,1,1.06-1,3.13,3.13,0,0,1,1.85-.56,2.91,2.91,0,0,1,1.88.57,3.08,3.08,0,0,1,.73,1,3.62,3.62,0,0,1,1.29-1.16,3.54,3.54,0,0,1,1.67-.38,2.72,2.72,0,0,1,2.69,1.42,4.81,4.81,0,0,1,.38,2.07v6.52H430V105a1.6,1.6,0,0,0-.49-1.35,2,2,0,0,0-1.19-.36,2.34,2.34,0,0,0-1.67.65,2.82,2.82,0,0,0-.7,2.16v5.7h-1.67v-6.39A3.32,3.32,0,0,0,424,104a1.46,1.46,0,0,0-1.4-.68,2.43,2.43,0,0,0-1.7.72,3.53,3.53,0,0,0-.76,2.62v5.19h-1.65Z"></path>
    <path class="cls-2" d="M434,98.34h1.6v4.88a3.7,3.7,0,0,1,1.29-1.08,3.62,3.62,0,0,1,1.64-.37,3.85,3.85,0,0,1,3,1.26,5.35,5.35,0,0,1,1.14,3.71,6.37,6.37,0,0,1-1.13,3.86,3.67,3.67,0,0,1-3.13,1.53,3.2,3.2,0,0,1-1.89-.54,4.19,4.19,0,0,1-1-1v1.25H434Zm6.29,11.28a5.25,5.25,0,0,0,.67-2.8,4.62,4.62,0,0,0-.67-2.56,2.19,2.19,0,0,0-2-1,2.74,2.74,0,0,0-2,.84,3.74,3.74,0,0,0-.84,2.74,6.1,6.1,0,0,0,.34,2.24,2.42,2.42,0,0,0,2.44,1.62A2.19,2.19,0,0,0,440.24,109.62Z"></path>
    <path class="cls-2" d="M444.76,98.39h1.84v5.55h6.91V98.39h1.84v13.43h-1.84v-6.28H446.6v6.28h-1.84Z"></path>
  </g>
</svg>
