<?xml version="1.0" encoding="UTF-8"?>
<svg xmlns="http://www.w3.org/2000/svg" xmlns:xlink="http://www.w3.org/1999/xlink" version="1.1" id="Ebene_1" x="0px" y="0px" viewBox="0 0 34 16.9" style="enable-background:new 0 0 137 16.9;" xml:space="preserve">
<style type="text/css">
	.st0{fill:#213A8F;}
	.st1{fill:#727777;}
</style>
<g>
	<path class="st0" d="M0.5,14.1V2.9h2.4v11.2H0.5z"></path>
	<path class="st0" d="M5.7,2.9h3.4c1.6,0,2.7,0.2,3.4,0.7c0.7,0.4,1.1,1.2,1.1,2.2c0,0.6-0.1,1.2-0.5,1.6c-0.3,0.4-0.7,0.7-1.3,0.8   v0.1c0.7,0.1,1.2,0.4,1.5,0.9c0.4,0.5,0.5,1,0.5,1.8c0,1-0.4,1.8-1.1,2.4c-0.7,0.6-1.8,0.8-3,0.8H5.6L5.7,2.9L5.7,2.9z M8,7.4h1.4   c0.6,0,1.1-0.1,1.4-0.3c0.3-0.2,0.4-0.5,0.4-1c0-0.4-0.1-0.7-0.5-0.9C10.4,5,10,4.9,9.3,4.9H8V7.4z M8,9.3v2.9h1.5   c0.6,0,1.1-0.1,1.5-0.4c0.4-0.2,0.5-0.6,0.5-1.1c0-0.9-0.6-1.4-2-1.4H8z"></path>
</g>
<g>
	<path class="st1" d="M25.1,14.1h-2.7l-2.9-4.7l-1,0.7v4h-2.4V2.9h2.4v5.1l0.9-1.3l3-3.8H25l-3.9,4.9L25.1,14.1z"></path>
	<path class="st1" d="M33.1,11c0,1-0.4,1.8-1.1,2.4c-0.7,0.6-1.8,0.8-3,0.8c-1.2,0-2.2-0.2-3.2-0.7v-2.2c0.8,0.4,1.4,0.6,1.9,0.7   s1,0.2,1.4,0.2c0.5,0,0.9-0.1,1.2-0.3c0.3-0.2,0.4-0.5,0.4-0.9c0-0.2-0.1-0.4-0.2-0.6c-0.1-0.1-0.3-0.4-0.6-0.5   c-0.2-0.1-0.7-0.4-1.5-0.8c-0.7-0.4-1.2-0.6-1.5-0.9c-0.4-0.3-0.6-0.6-0.8-1.1c-0.2-0.4-0.3-0.8-0.3-1.4c0-1,0.4-1.8,1-2.3   c0.7-0.6,1.6-0.8,2.7-0.8c0.6,0,1.1,0.1,1.7,0.2c0.6,0.1,1.1,0.4,1.7,0.6l-0.8,1.8c-0.6-0.2-1.1-0.4-1.5-0.5   c-0.4-0.1-0.8-0.1-1.1-0.1c-0.4,0-0.8,0.1-1.1,0.3c-0.2,0.2-0.4,0.5-0.4,0.8c0,0.2,0.1,0.4,0.1,0.6c0.1,0.1,0.3,0.3,0.5,0.4   c0.2,0.1,0.7,0.4,1.5,0.8c1.1,0.5,1.8,1,2.2,1.5C32.9,9.7,33.1,10.2,33.1,11z"></path>
</g>
</svg>
