<?xml version="1.0" encoding="utf-8"?>
<!-- Generator: Adobe Illustrator 22.0.1, SVG Export Plug-In . SVG Version: 6.00 Build 0)  -->
<svg version="1.1" id="Ebene_1" xmlns="http://www.w3.org/2000/svg" xmlns:xlink="http://www.w3.org/1999/xlink" x="0px" y="0px"
	 viewBox="0 0 420.9 297.6" style="enable-background:new 0 0 420.9 297.6;" xml:space="preserve">
<style type="text/css">
	.st0{fill:#E6002D;}
</style>
<circle class="st0" cx="46.7" cy="101.3" r="9.2"/>
<rect x="39.6" y="120.5" class="st0" width="14.2" height="56.7"/>
<rect x="237.2" y="92.1" class="st0" width="14.2" height="85"/>
<path class="st0" d="M163.1,205.5h14.2v-30.2c5.1,3.4,11.2,5.4,17.7,5.4c17.6,0,31.9-14.3,31.9-31.9c0-17.6-14.3-31.9-31.9-31.9
	c-17.6,0-31.9,11.2-31.9,33.9L163.1,205.5z M195,166.5c-9.8,0-17.7-7.9-17.7-17.7c0-9.8,7.9-17.7,17.7-17.7
	c9.8,0,17.7,7.9,17.7,17.7C212.7,158.6,204.8,166.5,195,166.5z"/>
<path class="st0" d="M126.2,116.9c-6.9,0-13.2,2.9-17.7,7.5c-4.5-4.6-10.8-7.5-17.7-7.5c-13.7,0-24.8,9.2-24.8,24.8v35.4h14.2v-34.4
	c0-7.7,4.8-11.6,10.6-11.6c5.9,0,10.6,4,10.6,11.6v34.4h14.2v-34.4c0-7.7,4.8-11.6,10.6-11.6c5.9,0,10.6,3.9,10.6,11.6v34.4H151
	v-35.4C151,126.1,139.9,116.9,126.2,116.9z"/>
<g>
	<path class="st0" d="M376.3,163.9c-2.7,1.7-5.9,2.7-9.3,2.7c-9.8,0-17.7-7.9-17.7-17.7c0-9.8,7.9-17.7,17.7-17.7
		c3.5,0,6.7,1,9.4,2.7l7.1-12.3c-4.8-2.9-10.5-4.6-16.5-4.6c-17.6,0-31.9,14.3-31.9,31.9c0,17.6,14.3,31.9,31.9,31.9
		c6,0,11.6-1.7,16.4-4.6L376.3,163.9z"/>
</g>
<path class="st0" d="M293.4,116.9c-17.6,0-31.9,14.3-31.9,31.9c0,17.6,14.3,31.9,31.9,31.9c6,0,11.6-1.7,16.4-4.6l-7.1-12.3
	c-2.7,1.7-5.9,2.7-9.3,2.7c-7.3,0-13.5-4.4-16.2-10.6h37.4l0,0h10c0.5-2.3,0.8-4.6,0.8-7.1C325.3,131.2,311,116.9,293.4,116.9z
	 M293.4,131.1c7.3,0,13.5,4.4,16.2,10.6h-32.5C279.9,135.5,286.1,131.1,293.4,131.1z"/>
</svg>
