<?xml version="1.0" encoding="UTF-8" standalone="no"?>
<svg xmlns="http://www.w3.org/2000/svg" xmlns:xlink="http://www.w3.org/1999/xlink" width="99px" height="120px" viewBox="0 0 99 120" version="1.1">
  <title>Logo Meisen 2c</title>
  <desc>Created with Sketch.</desc>
  <defs></defs>
  <g id="Page-1" stroke="none" stroke-width="1" fill="none" fill-rule="evenodd">
    <g id="00-Start" transform="translate(-152.000000, -24.000000)">
      <g id="Logo-Meisen-2c" transform="translate(152.000000, 24.000000)">
        <polyline id="Fill-1" fill="#E98551" points="0.15219403 0.271512195 29.6320299 0.271512195 0.15219403 29.5697439 0.15219403 0.271512195"></polyline>
        <polyline id="Fill-2" fill="#E98551" points="92.6935522 0.271512195 92.6935522 41.6269512 42.5271493 92.6874756 0.15219403 92.6874756 0.15219403 49.1407561 49.0803582 0.271512195 92.6935522 0.271512195"></polyline>
        <path d="M17.1639403,85.7580122 L21.3027313,81.6263049 L29.7783134,85.5602805 L25.8345672,77.0991341 L29.9837015,72.955622 L46.206403,89.1474878 L42.5108955,92.8379878 L36.4393881,86.7791341 C34.9041493,85.2474512 33.408806,83.6301829 31.950403,81.9273293 L31.6726119,82.2062195 C32.293209,83.1506098 33.0482687,84.5465366 33.9407463,86.3954756 L37.0112239,92.7789634 L30.6279403,89.7037927 C28.7676269,88.806622 27.3683284,88.0525854 26.4300448,87.4402073 L26.1404328,87.7309024 C27.7362537,89.0619024 29.3601493,90.5522683 31.0121194,92.1990488 L37.0821493,98.2579024 L33.3866418,101.948402 L17.1639403,85.7580122" id="Fill-3" fill="#FFFFFE"></path>
        <polyline id="Fill-4" fill="#FFFFFE" points="32.3079851 70.6344878 41.5474925 61.4075 44.8159701 64.6685976 39.3532388 70.1239268 42.3291493 73.0958049 47.4195224 68.0123293 50.5949104 71.1804634 45.5045373 76.263939 48.9931791 79.746378 54.4559104 74.2910488 57.770194 77.5993659 48.5306866 86.824878 32.3079851 70.6344878"></polyline>
        <polyline id="Fill-5" fill="#FFFFFE" points="43.4890746 59.4700244 47.2998358 55.6629512 63.5225373 71.8533415 59.7102985 75.6604146 43.4890746 59.4700244"></polyline>
        <path d="M60.6264179,65.064061 C63.036403,64.9784756 64.7947612,64.3823293 65.9029701,63.2770976 C66.4688955,62.711939 66.7703284,62.046439 66.8087463,61.2805976 C66.8486418,60.5147561 66.607791,59.8728659 66.0876716,59.3534512 C65.6695075,58.9358537 65.1538209,58.7071341 64.5420896,58.6687683 C63.9214925,58.6377805 63.0068507,58.8237073 61.7981642,59.2265488 C60.1018657,59.8064634 58.6094776,60.049939 57.3224776,59.9569756 C56.0280896,59.8728659 54.8504328,59.3003293 53.7880299,58.2393659 C52.4389701,56.8936098 51.7755224,55.2881463 51.7991642,53.4229756 C51.8139403,51.5504268 52.6000299,49.8372439 54.1574328,48.2819512 C55.2257463,47.2136098 56.6250448,46.3902195 58.3538507,45.8088293 L62.225194,49.6734512 C60.218597,49.7132927 58.7454179,50.2002439 57.8086119,51.1357805 C57.3431642,51.6005976 57.0801493,52.1421463 57.0180896,52.7619024 C56.9560299,53.3801829 57.123,53.8863171 57.519,54.2817805 C57.9061343,54.6683902 58.3789701,54.8616951 58.9375075,54.8616951 C59.4871791,54.8705488 60.2939552,54.6683902 61.3548806,54.2581707 C63.1147164,53.5852927 64.6558657,53.2842683 65.9812836,53.353622 C67.3155672,53.4303537 68.5789254,54.0648659 69.7728358,55.2556829 C71.2755672,56.7578537 72.0173284,58.5802317 71.9951642,60.7228171 C71.9789104,62.8595 71.1928209,64.7040122 69.6354179,66.2593049 C68.4267313,67.4663537 66.7614627,68.4033659 64.6381343,69.0673902 L60.6264179,65.064061" id="Fill-6" fill="#FFFFFE"></path>
        <polyline id="Fill-7" fill="#FFFFFE" points="60.5732239 42.4090244 69.8127313 33.1820366 73.0797313 36.4431341 67.617 41.8984634 70.5943881 44.8688659 75.6847612 39.7853902 78.8601493 42.9535244 73.7697761 48.037 77.2584179 51.519439 82.7211493 46.0641098 86.0339552 49.3724268 76.7944478 58.5994146 60.5732239 42.4090244"></polyline>
        <path d="M71.6479254,31.3478537 L75.4956269,27.5053659 L82.4832537,30.7900732 C84.5607761,31.7654512 86.3043582,32.662622 87.7154776,33.483061 L87.9134776,33.2868049 L85.0764627,30.639561 L78.7153433,24.2914878 L82.3399254,20.6703415 L98.5626269,36.8607317 L94.7282239,40.6914146 L87.740597,37.4067073 C85.6630746,36.4313293 83.9135821,35.5297317 82.4965522,34.7019146 L82.2867313,34.9114512 L85.1237463,37.5572195 L91.4966866,43.9170976 L87.8706269,47.5382439 L71.6479254,31.3478537" id="Fill-8" fill="#FFFFFE"></path>
        <polygon id="Fill-9" fill="#525D5C" points="0.345761194 119.291244 1.88986567 119.291244 1.88986567 103.46828 0.345761194 103.46828"></polygon>
        <path d="M6.82065672,103.46828 L10.2398507,112.18028 L13.635403,103.46828 L15.4868507,103.46828 L15.4868507,119.291244 L14.0905075,119.291244 L14.0905075,109.196598 L14.1008507,106.599524 C14.1008507,106.273415 14.0978955,105.789415 14.0905075,105.147524 C13.8171493,106.183402 13.4536567,107.294537 13.0000299,108.482402 L10.2398507,115.661244 L7.89931343,109.627476 C7.44568657,108.46322 6.90340299,107.015646 6.27541791,105.28328 C6.3729403,108.693415 6.4231791,110.588098 6.4231791,110.965854 L6.4231791,119.291244 L4.95738806,119.291244 L4.95738806,103.46828 L6.82065672,103.46828" id="Fill-10" fill="#525D5C"></path>
        <path d="M20.394,103.46828 L23.813194,112.18028 L27.2087463,103.46828 L29.060194,103.46828 L29.060194,119.291244 L27.6623731,119.291244 L27.6623731,109.196598 L27.674194,106.599524 C27.674194,106.273415 27.6712388,105.789415 27.6623731,105.147524 C27.3904925,106.183402 27.027,107.294537 26.5733731,108.482402 L23.813194,115.661244 L21.4726567,109.627476 C21.0190299,108.46322 20.4767463,107.015646 19.8487612,105.28328 C19.9477612,108.693415 19.9965224,110.588098 19.9965224,110.965854 L19.9965224,119.291244 L18.5307313,119.291244 L18.5307313,103.46828 L20.394,103.46828" id="Fill-11" fill="#525D5C"></path>
        <path d="M36.5797612,103.207098 C38.1090896,103.207098 39.3473284,103.944902 40.2944776,105.419037 C41.2401493,106.894646 41.7129851,108.966402 41.7129851,111.63578 C41.7129851,114.032171 41.2253731,115.948988 40.2486716,117.386232 C39.2719701,118.823476 38.0292985,119.540622 36.5221343,119.542098 C34.9854179,119.542098 33.7353582,118.833805 32.7749104,117.420171 C31.8129851,115.999159 31.3327612,114.032171 31.3327612,111.522159 C31.3327612,108.966402 31.798209,106.943341 32.7291045,105.452976 C33.66,103.956707 34.9440448,103.207098 36.5797612,103.207098 Z M36.6477313,104.613354 C35.3755075,104.613354 34.4372239,105.261146 33.831403,106.55378 C33.2329701,107.839037 32.9330149,109.525659 32.9330149,111.612171 C32.9330149,113.586537 33.2477463,115.162488 33.8757313,116.342976 C34.5037164,117.51461 35.3755075,118.100427 36.4881493,118.100427 C37.6170448,118.100427 38.4991791,117.495427 39.1345522,116.285427 C39.771403,115.075427 40.0890896,113.431598 40.0890896,111.350988 C40.0890896,109.090354 39.752194,107.405207 39.078403,106.292598 C38.412,105.174085 37.6022687,104.614829 36.6477313,104.613354 L36.6477313,104.613354 Z" id="Fill-12" fill="#525D5C"></path>
        <path d="M43.8599552,103.46828 L48.0637612,103.46828 C49.2975672,103.46828 50.2846119,103.773732 51.0278507,104.387585 C51.777,104.992585 52.1523134,105.907463 52.1523134,107.13222 C52.1523134,108.008732 51.9321493,108.758341 51.4932985,109.378098 C51.0544478,109.997854 50.391,110.493659 49.5059104,110.864037 C50.7544925,110.977659 51.6898209,111.355415 52.3104179,111.99878 C52.9398806,112.633293 53.2531343,113.533415 53.2546119,114.697671 C53.2546119,115.590415 53.0684328,116.357732 52.6975522,117.001098 C52.325194,117.63561 51.7696119,118.177159 51.0278507,118.622793 C50.2934776,119.068427 49.4039552,119.291244 48.357806,119.291244 L43.8599552,119.291244 L43.8599552,103.46828 Z M45.3937164,104.806659 L45.3937164,110.353476 L47.1210448,110.353476 C48.1952687,110.353476 49.0360299,110.089341 49.6418507,109.559598 C50.2550597,109.029854 50.562403,108.269915 50.562403,107.27978 C50.562403,106.454915 50.3126866,105.839585 49.8117761,105.430841 C49.3197313,105.01472 48.5779701,104.806659 47.5864925,104.806659 L45.3937164,104.806659 Z M45.3937164,111.680049 L45.3937164,117.964671 L47.9499851,117.964671 C49.130597,117.964671 50.0393284,117.662171 50.6761791,117.057171 C51.3189403,116.452171 51.6410597,115.636159 51.6410597,114.607659 C51.6410597,113.579159 51.2967761,112.833976 50.6067313,112.37211 C49.9181642,111.91172 48.8542836,111.681524 47.4150896,111.680049 L45.3937164,111.680049 L45.3937164,111.680049 Z" id="Fill-13" fill="#525D5C"></path>
        <polygon id="Fill-14" fill="#525D5C" points="55.3557761 119.291244 56.9013582 119.291244 56.9013582 103.46828 55.3557761 103.46828"></polygon>
        <polyline id="Fill-15" fill="#525D5C" points="59.9777463 103.46828 61.5336716 103.46828 61.5336716 117.964671 67.4175224 117.964671 67.4175224 119.291244 59.9777463 119.291244 59.9777463 103.46828"></polyline>
        <polygon id="Fill-16" fill="#525D5C" points="69.1670149 119.291244 70.7111194 119.291244 70.7111194 103.46828 69.1670149 103.46828"></polygon>
        <polyline id="Fill-17" fill="#525D5C" points="73.7328358 103.46828 81.4223284 103.46828 81.4223284 104.806659 75.266597 104.806659 75.266597 110.37561 81.0824776 110.37561 81.0824776 111.691854 75.266597 111.691854 75.266597 117.976476 81.4223284 117.976476 81.4223284 119.291244 73.7328358 119.291244 73.7328358 103.46828"></polyline>
        <path d="M85.4429104,103.46828 L90.1343284,114.00561 L91.3607463,116.784183 C91.278,113.942159 91.2366269,112.470976 91.2366269,112.37211 L91.2366269,103.46828 L92.610806,103.46828 L92.610806,119.291244 L91.0667015,119.291244 L86.5230448,109.140524 C86.3944925,108.85278 86.1506866,108.240402 85.7960597,107.301915 L85.2508209,105.907463 C85.2271791,106.22472 85.2168358,106.410646 85.2168358,106.463768 L85.2729851,107.688524 L85.284806,109.445976 L85.2508209,110.126232 L85.2508209,119.291244 L83.8766418,119.291244 L83.8766418,103.46828 L85.4429104,103.46828" id="Fill-18" fill="#525D5C"></path>
      </g>
    </g>
  </g>
</svg>
