<?xml version="1.0" encoding="UTF-8"?>
<svg xmlns="http://www.w3.org/2000/svg" xmlns:xlink="http://www.w3.org/1999/xlink" id="Ebene_1" viewBox="0 0 1303.9 333">
  <defs>
    <style>.cls-1{fill:#fff;}.cls-2{fill:url(#Unbenannter_Verlauf_30-2);}.cls-2,.cls-3{isolation:isolate;opacity:.5;}.cls-4{fill:url(#Unbenannter_Verlauf_10);}.cls-5{fill:url(#Unbenannter_Verlauf_6);}.cls-6{fill:url(#Unbenannter_Verlauf_7);}.cls-3{fill:url(#Unbenannter_Verlauf_30);}</style>
    <linearGradient id="Unbenannter_Verlauf_6" x1="26.1" y1="243.75" x2="312.8" y2="243.75" gradientTransform="translate(0 334) scale(1 -1)" gradientUnits="userSpaceOnUse">
      <stop offset="0" stop-color="#2b00d4"></stop>
      <stop offset="1" stop-color="#3a28dc"></stop>
    </linearGradient>
    <linearGradient id="Unbenannter_Verlauf_7" x1="26.99" y1="79.25" x2="312.3" y2="79.25" gradientTransform="translate(0 334) scale(1 -1)" gradientUnits="userSpaceOnUse">
      <stop offset="0" stop-color="#2b00d4"></stop>
      <stop offset="1" stop-color="#3a28dc"></stop>
    </linearGradient>
    <linearGradient id="Unbenannter_Verlauf_30" x1="295.25" y1="58.88" x2="295.25" y2="112.58" gradientUnits="userSpaceOnUse">
      <stop offset="0" stop-color="#000" stop-opacity="0"></stop>
      <stop offset="1" stop-color="#000"></stop>
    </linearGradient>
    <linearGradient id="Unbenannter_Verlauf_30-2" x1="43.65" y1="271.6" x2="43.65" y2="217.9" xlink:href="#Unbenannter_Verlauf_30"></linearGradient>
    <linearGradient id="Unbenannter_Verlauf_10" x1="26.12" y1="168.35" x2="312.73" y2="168.35" gradientTransform="translate(0 334) scale(1 -1)" gradientUnits="userSpaceOnUse">
      <stop offset="0" stop-color="#05b4c6"></stop>
      <stop offset="1" stop-color="#49e4ff"></stop>
    </linearGradient>
  </defs>
  <g id="DUNKEL">
    <g>
      <path class="cls-5" d="M312.8,43.5V119.1c0,9.7-7.9,17.6-17.6,17.6s-17.6-7.9-17.6-17.6V61.1H61.3v75.9c0,9.7-7.9,17.6-17.6,17.6s-17.6-7.9-17.6-17.6V43.5c0-9.7,7.9-17.6,17.6-17.6h251.5c9.7,0,17.6,7.9,17.6,17.6Z"></path>
      <path class="cls-6" d="M312.8,223.9v65.6c0,9.7-7.9,17.6-17.6,17.6H43.7c-7.1,0-13.5-4.3-16.2-10.9-1.1-2.6-1.5-5.3-1.3-7.9,0-2.2,.1-11,.1-22.3,0-14.2-.1-32.3-.1-45.8v-.2c0-9.7,7.8-17.6,17.5-17.6h.1c9.7,0,17.5,7.8,17.6,17.5v.4c0,2.5,.1,18.5,.1,34.4v17.3h216.2v-48c0-9.7,7.9-17.6,17.6-17.6,9.6,0,17.5,7.8,17.5,17.5Z"></path>
      <rect class="cls-3" x="277.7" y="58.88" width="35.1" height="53.7"></rect>
      <rect class="cls-2" x="26.1" y="217.9" width="35.1" height="53.7"></rect>
      <path class="cls-4" d="M312.4,108.4c-.1-.5-.3-1-.4-1.5-.2-.6-.3-1.2-.6-1.8-.2-.6-.6-1.1-.9-1.7-.2-.4-.4-.9-.7-1.3-1.3-1.9-2.9-3.6-4.9-4.9-.4-.3-.9-.5-1.3-.7-.6-.3-1.1-.6-1.7-.9-.6-.2-1.2-.4-1.8-.6-.5-.1-.9-.3-1.4-.4-1.1-.2-2.3-.3-3.5-.3h-60.7c-9.7,0-17.6,7.9-17.6,17.6s7.9,17.6,17.6,17.6h18.3l-49.4,49.4-59.5-59.5c-3.3-3.3-7.8-5.2-12.4-5.2h0c-4.7,0-9.1,1.9-12.4,5.1L31.3,207c-6.9,6.9-6.9,18,0,24.9,3.4,3.4,7.9,5.1,12.4,5.1s9-1.7,12.4-5.1l75.3-75.3,59.5,59.5c3.3,3.3,7.8,5.1,12.4,5.2h0c4.7,0,9.1-1.8,12.4-5.1l61.8-61.8v17c0,9.7,7.9,17.6,17.6,17.6s17.6-7.9,17.6-17.6v-59.4c.1-1.3-.1-2.5-.3-3.6Z"></path>
    </g>
    <g>
      <path class="cls-1" d="M963.4,128.6h9.8l-20.2,57.9h-9l-13.1-42.2-.4-.1-13.2,42.3h-8.5l-20.1-57.9h9.8l14.8,43.3h.2l13.2-43.3h8.4l13.4,43.3h.2l14.7-43.3Z"></path>
      <path class="cls-1" d="M1026.1,156.7c0,.6,0,1.5-.1,2.5l-.1,1.4h-44.6c.6,5.4,2.7,9.7,6.2,13s7.9,4.9,13.1,4.9c6.7,0,12.2-2.6,16.3-7.9l6.8,5.8c-5.6,7.2-13.4,10.8-23.4,10.8-8.3,0-15.2-2.8-20.6-8.3-5.4-5.5-8.1-12.6-8.1-21.4s2.6-15.8,7.9-21.4c5.3-5.6,11.9-8.4,19.8-8.4s14.5,2.7,19.4,8.1c4.9,5.6,7.4,12.5,7.4,20.9Zm-15.1-15.6c-2.9-2.9-6.7-4.3-11.3-4.3s-8.5,1.4-11.8,4.2-5.4,6.7-6.2,11.6h35c-.9-4.8-2.8-8.7-5.7-11.5Z"></path>
      <path class="cls-1" d="M1060.9,127.9c1.2,0,2,0,2.4,.1v10.7c-1.7-.2-3-.2-3.8-.2-5.4,0-9.7,1.9-12.8,5.6-3.2,3.7-4.8,8.6-4.8,14.5v28h-9.6v-57.9h9.6v10.2h.1c4.5-7.4,10.8-11,18.9-11Z"></path>
      <path class="cls-1" d="M1110.2,99h9.6v87.6h-9.2v-9.2h-.2c-4.9,6.6-11.6,9.9-20,9.9s-14.9-2.7-20.3-8.1c-5.4-5.4-8.1-12.5-8.1-21.2s2.7-15.7,8-21.5c5.4-5.7,12.1-8.6,20.3-8.6s14.8,3.1,19.7,9.4h.1v-38.3h.1Zm-19,79.4c5.2,0,9.8-1.9,13.6-5.8,3.8-3.8,5.7-8.7,5.7-14.7s-1.8-11-5.5-15c-3.6-4.1-8.2-6.1-13.7-6.1s-10.2,2-14,5.9-5.7,9-5.7,15.3c0,5.9,1.8,10.8,5.4,14.7,3.8,3.8,8.5,5.7,14.2,5.7Z"></path>
      <path class="cls-1" d="M1180.9,156.7c0,.6,0,1.5-.1,2.5l-.1,1.4h-44.7c.6,5.4,2.7,9.7,6.2,13s7.9,4.9,13.1,4.9c6.7,0,12.2-2.6,16.3-7.9l6.8,5.8c-5.6,7.2-13.4,10.8-23.4,10.8-8.3,0-15.2-2.8-20.6-8.3s-8.1-12.6-8.1-21.4,2.6-15.8,7.9-21.4c5.3-5.6,11.9-8.4,19.8-8.4s14.5,2.7,19.4,8.1c5,5.6,7.5,12.5,7.5,20.9Zm-15.1-15.6c-2.9-2.9-6.7-4.3-11.3-4.3s-8.5,1.4-11.8,4.2-5.4,6.7-6.2,11.6h35c-.9-4.8-2.8-8.7-5.7-11.5Z"></path>
      <path class="cls-1" d="M1217.8,127.9c6.4,0,11.5,2,15.2,6.1s5.6,10.1,5.6,18.1v34.4h-9.6v-31.6c0-12.1-4.7-18.1-14.2-18.1-5.6,0-10,1.8-13.3,5.5s-4.9,8.8-4.9,15.3v28.9h-9.6v-57.9h9.6v10.1h.1c5.2-7.2,12.2-10.8,21.1-10.8Z"></path>
    </g>
    <g>
      <path class="cls-1" d="M416.8,187.5c-9.1,0-17-2.8-23.6-8.4l7.6-10.8c4.8,4.5,10.1,6.8,16.1,6.8,2.2,0,4-.4,5.2-1.3,1.3-.9,1.9-2,1.9-3.5,0-1.3-.8-2.3-2.3-3.2s-4.3-1.9-8.3-3.2c-5.6-1.9-10-4.3-13.1-7.1s-4.7-6.8-4.7-11.8,2-9.3,5.9-12.6c4-3.2,9-4.8,15-4.8,7.9,0,15,2.4,21.2,7.3l-7.5,11.4c-4.4-4.1-9-6.2-13.9-6.2-1.4,0-2.7,.4-3.9,1.1-1.2,.8-1.8,1.8-1.8,3.3,0,1.1,.7,2.1,2.1,3s3.6,2,6.7,3.2c3.2,1.2,5.5,2.1,7,2.7,1.5,.6,3.3,1.5,5.4,2.6,2.1,1.2,3.5,2.3,4.3,3.3,.8,1.1,1.6,2.5,2.3,4.2,.7,1.7,1,3.7,1,5.9,0,5.4-1.9,9.8-5.8,13.1-3.8,3.3-9.4,5-16.8,5Z"></path>
      <path class="cls-1" d="M451.7,120.3c-2.6,0-4.9-.9-6.8-2.8s-2.9-4.1-2.9-6.7,1-4.9,2.9-6.7c1.9-1.9,4.2-2.8,6.8-2.8s5,.9,6.9,2.8,2.9,4.1,2.9,6.7-1,4.9-2.9,6.7c-2,1.8-4.3,2.8-6.9,2.8Zm-7.9,66.2v-58.1h15.6v58.1h-15.6Z"></path>
      <path class="cls-1" d="M493.8,187.5c-8.7,0-15.9-2.8-21.5-8.3s-8.4-12.8-8.4-21.7,2.8-16.1,8.5-21.7c5.7-5.6,13-8.3,22.1-8.3,4.8,0,9.4,1,13.8,2.9,4.4,1.9,8,4.6,10.8,8.2l-10.5,9c-3.6-4.1-8.1-6.2-13.6-6.2-4.6,0-8.3,1.5-11.2,4.5-2.9,3-4.3,6.8-4.3,11.5s1.4,8.6,4.3,11.7c2.9,3,6.6,4.5,11.2,4.5,5.6,0,10.1-2,13.6-5.9l10.6,9.4c-2.7,3.1-6.2,5.6-10.6,7.6-4.3,1.8-9.3,2.8-14.8,2.8Z"></path>
      <path class="cls-1" d="M556.1,127.5c14.3,0,21.4,8.1,21.4,24.1v34.9h-15.6v-30.9c0-5.2-.9-8.8-2.8-10.9-1.9-2.1-4.7-3.2-8.5-3.2-4.3,0-7.6,1.3-10.1,4-2.4,2.7-3.6,6.5-3.6,11.6v29.5h-15.6V99h15.7v36.5h.2c4.8-5.3,11.1-8,18.9-8Z"></path>
      <path class="cls-1" d="M602.1,187.5c-5.2,0-9.2-1.6-12.1-4.9-2.9-3.3-4.4-8-4.4-14.4v-26.9h-6.9v-12.8h6.9v-19l15.5-1.7v20.7h15.8v12.8h-15.9v24.7c0,4.9,1.7,7.4,5.1,7.4,2.2,0,4.7-.7,7.4-2l4,12.5c-4.4,2.4-9.6,3.6-15.4,3.6Z"></path>
      <path class="cls-1" d="M653.5,127.5c7.9,0,14.4,2.8,19.6,8.5,5.2,5.7,7.8,12.9,7.8,21.6s-2.6,16.1-7.8,21.6-11.9,8.3-20,8.3c-7.6,0-13.5-2.7-17.7-8h-.4v7h-14.9V99h15.6v36h.4c4.2-5,10.1-7.5,17.4-7.5Zm-3.3,46.1c4.4,0,8-1.5,10.8-4.4,2.7-2.9,4.1-6.7,4.1-11.4s-1.4-8.9-4.2-11.8c-2.8-3-6.4-4.5-10.6-4.5s-8.1,1.5-10.9,4.6c-2.9,3.1-4.3,7-4.3,11.7s1.5,8.5,4.4,11.4c2.8,2.9,6.4,4.4,10.7,4.4Z"></path>
      <path class="cls-1" d="M727.2,128.5h15.5v58.1h-14.7v-7h-.4c-4,5.3-9.8,8-17.4,8-8.1,0-14.7-2.8-19.9-8.3s-7.8-12.7-7.8-21.6,2.6-15.9,7.8-21.6c5.2-5.7,11.7-8.5,19.6-8.5,7.2,0,12.9,2.5,17,7.5h.4v-6.6h-.1Zm-14.1,45.1c4.1,0,7.6-1.5,10.5-4.4s4.3-6.7,4.3-11.4-1.4-8.6-4.2-11.7c-2.8-3.1-6.3-4.6-10.5-4.6s-7.9,1.5-10.7,4.5c-2.9,3-4.3,6.9-4.3,11.8s1.4,8.5,4.2,11.4c2.8,2.9,6.3,4.4,10.7,4.4Z"></path>
      <path class="cls-1" d="M783.4,127.5c.6,0,1,0,1.2,.1v16.9c-1-.1-2.4-.1-4-.1-4.7,0-8.3,1.4-10.9,4.2-2.6,2.8-3.9,6.4-3.9,10.9v27h-15.6v-58.1h15.6v8.6h.1c4.4-6.3,10.3-9.5,17.5-9.5Z"></path>
      <path class="cls-1" d="M841.1,156.9c0,3.1-.1,5-.4,5.6h-40.8c1,3.5,2.7,6.2,5.4,8.2,2.6,2,5.8,3,9.5,3,5.6,.1,10.3-2.1,13.9-6.5l10.1,9.4c-5.8,7.3-14.2,10.9-25.1,10.9-8.6,0-15.8-2.8-21.4-8.3-5.6-5.5-8.4-12.8-8.4-21.8s2.7-15.9,8.1-21.5c5.4-5.6,12.3-8.4,20.6-8.4s15.2,2.8,20.5,8.3c5.3,5.5,8,12.5,8,21.1Zm-28-15.7c-3.3,0-6,.9-8.3,2.6-2.3,1.7-3.9,4.2-4.8,7.5h25.6c-1.7-6.7-5.9-10.1-12.5-10.1Z"></path>
      <path class="cls-1" d="M878.9,127.5c.6,0,1,0,1.2,.1v16.9c-1-.1-2.4-.1-4-.1-4.7,0-8.3,1.4-10.9,4.2-2.6,2.8-3.9,6.4-3.9,10.9v27h-15.6v-58.1h15.6v8.6h.1c4.4-6.3,10.2-9.5,17.5-9.5Z"></path>
    </g>
    <g>
      <path class="cls-1" d="M411.9,229.8l-2.1-5.7h-10.5l-2.1,5.7h-3l8.9-23.5h2.9l9,23.5h-3.1Zm-11.6-8.3h8.7l-4.3-11.8h-.1l-4.3,11.8Z"></path>
      <path class="cls-1" d="M444.3,217.6h9.7v9.3c-2.3,2-5.4,3-9.1,3-3.4,0-6.2-1.1-8.5-3.2-2.2-2.2-3.3-5-3.3-8.7,0-3.5,1.1-6.4,3.2-8.7s5-3.4,8.5-3.4,6.6,1.2,9,3.7l-2.1,1.8c-1.9-1.8-4.2-2.7-7-2.7-2.5,0-4.6,.9-6.2,2.6s-2.4,3.9-2.4,6.7,.8,4.9,2.4,6.6,3.7,2.6,6.3,2.6,4.6-.6,6.3-1.8v-5.2h-6.8v-2.6Z"></path>
      <path class="cls-1" d="M476.1,229.8v-23.5h14.4v2.7h-11.5v7.9h9.4v2.7h-9.4v7.7h12.2v2.7h-15.1v-.2Z"></path>
      <path class="cls-1" d="M528,206.2h2.9v23.5h-2.9l-13.2-18.6h-.1v18.6h-2.9v-23.5h2.9l13.3,18.8h0v-18.8Z"></path>
      <path class="cls-1" d="M558.2,229.8v-20.9h-7.1v-2.7h17v2.7h-7.1v20.9h-2.8Z"></path>
      <path class="cls-1" d="M597.4,230c-2.7,0-4.9-.9-6.6-2.6-1.7-1.7-2.5-4.1-2.5-7.2v-14h2.9v13.8c0,2.2,.6,3.9,1.7,5.3,1.1,1.3,2.6,2,4.5,2s3.4-.6,4.5-1.9c1.1-1.3,1.7-3.1,1.7-5.3v-13.8h2.9v14c0,3-.8,5.4-2.5,7.2s-3.8,2.5-6.6,2.5Z"></path>
      <path class="cls-1" d="M645.7,229.8h-3.5l-6-9h-4.5v9h-2.9v-23.5h8.4c2.6,0,4.6,.7,5.8,2,1.3,1.3,1.9,3.1,1.9,5.3,0,1.9-.5,3.5-1.5,4.7s-2.4,1.9-4.1,2.3h0l6.4,9.2Zm-13.9-20.9v9.2h4.7c1.9,0,3.3-.4,4.2-1.3,.9-.8,1.4-2,1.4-3.4,0-1.5-.5-2.6-1.4-3.4-.9-.8-2.2-1.2-3.8-1.2h-5.1v.1Z"></path>
      <path class="cls-1" d="M692.6,229.8v-23.5h15v2.7h-12.1v8.3h10.3v2.7h-10.3v10h-2.9v-.2Z"></path>
      <path class="cls-1" d="M737,230c-2.7,0-4.9-.9-6.6-2.6s-2.5-4.1-2.5-7.2v-14h2.9v13.8c0,2.2,.6,3.9,1.7,5.3s2.6,2,4.5,2,3.4-.6,4.5-1.9c1.1-1.3,1.7-3.1,1.7-5.3v-13.8h2.9v14c0,3-.8,5.4-2.5,7.2s-3.8,2.5-6.6,2.5Zm-3-27.1c-.6,0-1-.2-1.4-.5-.4-.4-.5-.8-.5-1.3s.2-.9,.6-1.3,.8-.6,1.4-.6,1,.2,1.4,.6c.4,.4,.6,.8,.6,1.3s-.2,1-.6,1.3c-.5,.3-1,.5-1.5,.5Zm7.3-.6c-.4,.4-.8,.5-1.3,.5s-1-.2-1.3-.5c-.4-.4-.5-.8-.5-1.3s.2-.9,.5-1.3c.4-.4,.8-.5,1.3-.5s1,.2,1.3,.5c.4,.4,.5,.8,.5,1.3,.1,.5-.1,.9-.5,1.3Z"></path>
      <path class="cls-1" d="M785.3,229.8h-3.5l-6-9h-4.5v9h-2.9v-23.5h8.4c2.6,0,4.6,.7,5.8,2,1.3,1.3,1.9,3.1,1.9,5.3,0,1.9-.5,3.5-1.5,4.7s-2.4,1.9-4.1,2.3h0l6.4,9.2Zm-13.9-20.9v9.2h4.7c1.9,0,3.3-.4,4.2-1.3,.9-.8,1.4-2,1.4-3.4,0-1.5-.5-2.6-1.4-3.4-.9-.8-2.2-1.2-3.8-1.2h-5.1v.1Z"></path>
      <path class="cls-1" d="M839.1,230c-3.3,0-6.1-1.2-8.4-3.6l1.9-2.2c.8,1,1.8,1.8,3,2.3s2.4,.8,3.5,.8c1.5,0,2.6-.3,3.5-1,.9-.6,1.3-1.5,1.3-2.7,0-.6-.1-1.1-.3-1.6-.2-.4-.6-.8-1.1-1.2-.5-.3-1-.6-1.5-.8s-1.2-.5-2-.8c-.1-.1-.3-.1-.3-.1-.9-.3-1.6-.6-2.1-.8s-1.2-.5-1.9-1c-.7-.4-1.2-.8-1.6-1.3-.4-.4-.7-1-1-1.6-.3-.7-.4-1.4-.4-2.2,0-1.7,.7-3.2,2.1-4.4,1.4-1.2,3.1-1.8,5.1-1.8,2.7,0,5.1,.9,7.5,2.8l-1.8,2.3c-1.8-1.5-3.7-2.3-5.7-2.3-1.1,0-2.1,.3-2.9,.9-.8,.6-1.2,1.4-1.2,2.5,0,.4,.1,.8,.3,1.2s.4,.7,.6,.9,.6,.5,1.2,.8c.6,.3,1,.5,1.3,.6s.9,.4,1.7,.7c2.4,.9,4,1.7,4.8,2.2,1.7,1.1,2.5,2.7,2.5,4.8s-.8,3.7-2.3,4.9c-1.8,1.1-3.7,1.7-5.8,1.7Z"></path>
      <path class="cls-1" d="M868.3,229.8v-23.5h2.9v23.5h-2.9Z"></path>
      <path class="cls-1" d="M904.5,229.9c-3.3,0-6.1-1-8.4-3.1-2.2-2.1-3.4-5-3.4-8.7,0-3.5,1-6.4,3.1-8.7s5-3.4,8.6-3.4,6.8,1.5,9.2,4.5l-2.2,1.8c-1.9-2.4-4.2-3.5-7-3.5s-4.8,.9-6.3,2.6c-1.6,1.7-2.4,4-2.4,6.7s.8,5,2.5,6.6c1.6,1.6,3.7,2.5,6.3,2.5,2.8,0,5.1-1.2,7-3.5l2.2,1.8c-2.4,3-5.5,4.4-9.2,4.4Z"></path>
      <path class="cls-1" d="M934.3,229.8v-23.5h2.9v11h12.3v-11h2.9v23.5h-2.9v-9.8h-12.3v9.8h-2.9Z"></path>
      <path class="cls-1" d="M979.8,229.8v-20.9h-7.1v-2.7h17v2.7h-7.1v20.9h-2.8Z"></path>
      <path class="cls-1" d="M1021.6,217.4c1.4,.3,2.6,1,3.5,2s1.4,2.4,1.4,4c0,1.9-.7,3.5-2,4.6-1.3,1.2-3.3,1.7-5.9,1.7h-8.6v-23.5h7.7c2.4,0,4.2,.5,5.6,1.4s2,2.4,2,4.3c0,1.2-.3,2.3-.9,3.3-.7,1-1.6,1.7-2.8,2.2h0Zm-8.7-8.5v7.5h4.8c1.3,0,2.4-.3,3.3-.9,.9-.6,1.4-1.6,1.4-2.9,0-2.4-1.7-3.6-5.2-3.6h-4.3v-.1Zm4.9,18.2c1.7,0,3.1-.3,4.1-1s1.5-1.7,1.5-3-.5-2.4-1.4-3.1c-1-.7-2.3-1.1-4.1-1.1h-5v8.2h4.9Z"></path>
      <path class="cls-1" d="M1062.9,229.8l-2.1-5.7h-10.5l-2.1,5.7h-3l8.9-23.5h2.9l9,23.5h-3.1Zm-11.6-8.3h8.7l-4.3-11.8h-.1l-4.3,11.8Z"></path>
      <path class="cls-1" d="M1103,229.8h-3.5l-6-9h-4.5v9h-2.9v-23.5h8.4c2.6,0,4.6,.7,5.8,2,1.3,1.3,1.9,3.1,1.9,5.3,0,1.9-.5,3.5-1.5,4.7s-2.4,1.9-4.1,2.3h0l6.4,9.2Zm-13.9-20.9v9.2h4.7c1.9,0,3.3-.4,4.2-1.3,.9-.8,1.4-2,1.4-3.4,0-1.5-.5-2.6-1.4-3.4-.9-.8-2.2-1.2-3.8-1.2h-5.1v.1Z"></path>
      <path class="cls-1" d="M1130.4,219.3h-.1l-3.4,4v6.5h-2.9v-23.5h2.9v12.9h.1l10.7-12.9h3.7l-9.1,10.7,9.4,12.8h-3.6l-7.7-10.5Z"></path>
      <path class="cls-1" d="M1161.9,229.8v-23.5h14.4v2.7h-11.5v7.9h9.4v2.7h-9.4v7.7h12.2v2.7h-15.1v-.2Z"></path>
      <path class="cls-1" d="M1197.7,229.8v-23.5h2.9v23.5h-2.9Z"></path>
      <path class="cls-1" d="M1228,229.8v-20.9h-7.1v-2.7h17v2.7h-7.1v20.9h-2.8Z"></path>
    </g>
  </g>
</svg>
